# xmcd
#
# Track frame offsets:
#	150
#	14876
#	29360
#	42345
#	56174
#	70511
#	87378
#	102047
#	115345
#	129713
#	147935
#	161518
#
# Disc length: 2337 seconds
#
# Revision: 3
# Processed by: cddbd v1.5.2PL0 Copyright (c) Steve Scherf et al.
# Submitted via: EZCDAudioConverter 8.0.2.1
#
DISCID=a8091f0c
DTITLE=JOÃO PAULO and DANIEL - VOL.04 [CD 903179371-2) CHANTECLER
DYEAR=1992
DGENRE=Sertanejo
TTITLE0=ESPERE POR MIM (BY GILMAR SINISTRO)
TTITLE1=TÁ FALTANDO AMOR (BY GILMAR SINISTRO)
TTITLE2=TCHAU TCHAU (BY GILMAR SINISTRO)
TTITLE3=DOU O BRAÇO A TORCER (BY GILMAR SINISTRO)
TTITLE4=COM QUANTOS PAUS SE FAZ UMA CAMA (BY GILMAR SINISTRO)
TTITLE5=ANJO MEU (BY GILMAR SINISTRO)
TTITLE6=VOCÊ VIROU MANIA (BY GILMAR SINISTRO)
TTITLE7=GOSTO DE HORTELÃ (BY GILMAR SINISTRO)
TTITLE8=FOGO DE AMOR (BY GILMAR SINISTRO)
TTITLE9=NÃO ESPERE AMANHECER (BY GILMAR SINISTRO)
TTITLE10=QUANDO CAI A CHUVA (BY GILMAR SINISTRO)
TTITLE11=AGITO (BY GILMAR SINISTRO)
EXTD=
EXTT0=
EXTT1=
EXTT2=
EXTT3=
EXTT4=
EXTT5=
EXTT6=
EXTT7=
EXTT8=
EXTT9=
EXTT10=
EXTT11=
PLAYORDER=
